<?xml version="1.0" standalone="no"?>
<!DOCTYPE svg PUBLIC "-//W3C//DTD SVG 20010904//EN"
 "http://www.w3.org/TR/2001/REC-SVG-20010904/DTD/svg10.dtd">
<svg version="1.0" xmlns="http://www.w3.org/2000/svg"
 width="539.000000pt" height="539.000000pt" viewBox="0 0 539.000000 539.000000"
 preserveAspectRatio="xMidYMid meet">
<metadata>
Created by potrace 1.14, written by Peter Selinger 2001-2017
</metadata>
<g transform="translate(0.000000,539.000000) scale(0.100000,-0.100000)"
fill="#000000" stroke="none">
<path d="M2000 5350 c-69 -21 -147 -47 -175 -58 l-50 -20 0 -2208 0 -2208 75
-29 c67 -25 267 -87 284 -87 3 0 6 482 6 1070 l0 1070 550 0 550 0 0 -1070 0
-1070 28 5 c39 7 244 72 297 95 l45 19 -2 2207 -3 2207 -90 32 c-85 31 -202
67 -252 78 l-23 5 0 -1069 0 -1069 -550 0 -550 0 0 1070 c0 589 -3 1070 -7
1070 -5 -1 -64 -18 -133 -40z"/>
<path d="M1291 5000 c-356 -263 -635 -610 -790 -980 -13 -30 -29 -68 -36 -85
-26 -59 -85 -251 -104 -340 -42 -196 -54 -307 -55 -510 l-1 -200 365 -5 365
-5 1 -510 c0 -280 -2 -514 -4 -518 -8 -15 -132 187 -197 318 -34 72 -80 180
-100 240 l-36 110 -165 0 -166 0 6 -38 c9 -55 81 -266 128 -372 124 -283 282
-511 512 -740 107 -106 282 -249 363 -297 l28 -16 0 1096 0 1097 -385 5 c-255
3 -384 8 -383 15 1 6 4 37 8 70 3 33 8 67 10 75 3 8 7 29 10 45 29 170 104
385 193 555 57 109 159 270 171 270 3 0 6 -150 6 -332 l0 -333 182 -1 c160 -1
182 0 185 15 9 39 2 1435 -7 1437 -5 2 -52 -28 -104 -66z"/>
<path d="M3975 3975 l0 -1095 384 0 384 0 -6 -62 c-27 -292 -157 -639 -341
-915 -25 -37 -47 -66 -47 -63 -1 3 -2 156 -3 340 l-1 335 -178 0 c-111 0 -181
-3 -185 -10 -4 -5 -7 -335 -7 -732 l0 -721 28 16 c85 50 258 192 372 307 118
117 301 343 337 415 6 14 18 32 24 40 21 26 122 225 158 312 68 164 131 383
150 519 4 25 9 57 11 70 13 84 17 142 20 289 1 91 0 180 -2 198 l-5 32 -362 0
-361 0 0 515 c0 283 3 515 6 515 7 0 92 -124 127 -185 71 -126 156 -324 185
-430 6 -22 14 -43 20 -46 17 -12 327 -7 327 5 0 23 -49 185 -85 281 -165 442
-463 830 -848 1103 -48 34 -91 62 -95 62 -4 0 -7 -493 -7 -1095z"/>
<path d="M4731 1386 c-31 -17 -61 -65 -61 -99 0 -32 49 -85 175 -185 59 -48
84 -62 109 -62 71 0 122 80 91 142 -14 28 -175 174 -224 203 -24 14 -64 14
-90 1z m75 -78 c29 -22 141 -118 171 -147 19 -19 12 -45 -13 -49 -14 -2 -53
24 -123 83 -103 88 -106 91 -95 119 8 22 25 20 60 -6z"/>
<path d="M661 1267 c-42 -21 -64 -72 -71 -165 -6 -72 -11 -88 -29 -104 -17
-13 -27 -15 -42 -8 -24 13 -24 31 0 57 19 21 19 21 -3 42 -12 11 -25 21 -28
21 -12 0 -47 -56 -52 -82 -6 -36 28 -86 70 -104 31 -13 38 -13 70 2 58 28 77
65 84 165 7 96 25 131 61 122 23 -6 25 -39 5 -62 -13 -14 -12 -19 9 -39 l23
-22 26 31 c36 43 35 86 -5 127 -34 35 -75 41 -118 19z"/>
<path d="M4532 1175 l-23 -24 149 -152 148 -152 22 24 c12 12 21 26 20 30 -3
8 -255 266 -280 286 -10 9 -19 6 -36 -12z"/>
<path d="M827 995 c-53 -60 -117 -132 -141 -160 l-45 -50 27 -22 27 -22 24 27
c13 15 42 48 65 73 198 221 192 212 163 241 l-24 24 -96 -111z"/>
<path d="M4331 994 c-49 -37 -58 -48 -48 -58 6 -7 26 -30 42 -52 17 -21 63
-78 103 -127 40 -49 81 -100 92 -114 l19 -25 45 37 c101 83 99 110 -20 255
-123 150 -138 156 -233 84z m124 -61 c48 -57 120 -146 128 -160 10 -17 -11
-55 -28 -51 -7 2 -52 52 -101 112 -81 102 -86 110 -69 123 27 19 35 17 70 -24z"/>
<path d="M940 814 c-63 -91 -116 -169 -118 -173 -1 -5 8 -15 21 -24 24 -16 25
-15 97 89 40 57 74 103 76 101 1 -1 -23 -53 -54 -115 l-57 -113 23 -19 23 -19
101 102 c55 56 87 84 71 62 -17 -22 -53 -74 -82 -115 l-51 -75 22 -17 c13 -10
26 -17 30 -15 9 3 238 329 238 339 0 4 -17 19 -37 33 l-38 25 -36 -40 c-108
-118 -158 -168 -151 -153 4 10 33 68 64 129 l57 112 -37 26 c-21 14 -40 26
-43 26 -2 -1 -56 -75 -119 -166z"/>
<path d="M4150 862 l-22 -18 72 -114 c108 -171 111 -176 104 -194 -14 -37 -53
-14 -90 53 -11 18 -24 41 -29 50 -30 46 -108 166 -111 169 -1 2 -16 -4 -32
-14 l-30 -17 85 -136 c95 -152 130 -191 171 -191 35 0 90 34 101 63 13 35 4
66 -46 147 -81 133 -138 220 -144 220 -4 0 -17 -8 -29 -18z"/>
<path d="M1368 721 c-38 -30 -158 -273 -152 -308 11 -71 119 -109 168 -60 29
29 146 259 146 287 0 78 -101 128 -162 81z m92 -75 c0 -16 -107 -226 -124
-244 -14 -14 -42 -7 -50 13 -5 13 95 216 122 247 11 13 19 15 33 7 11 -5 19
-16 19 -23z"/>
<path d="M3838 686 c-49 -22 -88 -46 -88 -52 0 -5 6 -19 14 -29 13 -17 17 -18
40 -6 14 8 28 12 30 10 3 -2 39 -75 80 -162 l76 -158 30 16 c16 8 30 17 30 20
0 2 -34 73 -75 157 -41 84 -75 156 -75 159 0 4 13 12 29 19 21 8 27 17 24 30
-10 39 -26 38 -115 -4z"/>
<path d="M1655 617 c-3 -7 -25 -66 -51 -132 -25 -66 -56 -150 -69 -187 l-23
-67 28 -9 28 -10 48 126 c54 145 64 163 54 95 -5 -26 -11 -79 -15 -118 -3 -38
-8 -82 -11 -97 -3 -23 1 -30 27 -43 17 -9 32 -15 34 -13 7 6 145 373 145 384
0 6 -11 16 -25 22 -29 13 -24 21 -72 -113 -14 -38 -28 -72 -30 -75 -3 -3 -2
36 3 85 12 145 14 136 -29 151 -29 10 -39 11 -42 1z"/>
<path d="M3558 574 c-60 -26 -70 -95 -24 -166 9 -13 47 -39 85 -58 75 -36 111
-80 89 -107 -18 -22 -48 -15 -58 13 -9 22 -14 25 -38 19 -35 -9 -34 -8 -26
-39 8 -32 58 -76 86 -76 30 0 87 30 99 53 15 27 6 97 -16 130 -9 14 -50 43
-90 63 -55 28 -77 44 -86 67 -11 26 -10 31 7 44 17 13 21 11 40 -13 17 -21 27
-25 48 -20 29 7 32 17 14 49 -28 52 -71 66 -130 41z"/>
<path d="M2106 368 c-10 -62 -22 -129 -26 -148 -5 -19 -11 -57 -15 -84 -3 -27
-7 -53 -8 -59 -1 -6 12 -13 30 -17 31 -7 32 -7 42 39 5 25 12 67 16 93 7 47 8
48 38 42 17 -3 33 -6 34 -8 1 -1 -4 -42 -13 -90 -8 -49 -14 -89 -12 -91 2 -1
17 -6 34 -9 l31 -7 18 108 c9 59 19 119 21 133 3 14 7 36 9 50 3 14 8 37 10
53 3 15 7 38 9 52 3 15 0 25 -7 25 -7 0 -22 3 -33 6 -19 5 -23 1 -29 -38 -15
-94 -26 -126 -43 -123 -10 2 -25 4 -35 4 -10 1 -16 4 -13 9 7 11 20 92 20 131
1 31 -2 35 -29 38 l-31 4 -18 -113z"/>
<path d="M3140 462 c-46 -7 -86 -14 -88 -16 -2 -2 11 -89 29 -192 17 -104 32
-196 34 -204 3 -18 54 -16 155 5 8 2 18 4 22 4 3 1 5 9 3 19 -2 9 -4 23 -4 30
-1 10 -12 12 -48 7 -26 -3 -50 -8 -54 -11 -11 -7 -16 6 -23 60 -4 27 -9 53
-11 57 -3 4 15 10 40 13 42 7 45 9 45 38 0 30 0 30 -45 25 -51 -7 -54 -4 -61
56 l-6 44 53 9 c52 9 64 21 50 54 -5 14 -16 14 -91 2z"/>
<path d="M2504 432 c-26 -4 -63 -42 -69 -70 -2 -12 -7 -84 -10 -160 -7 -136
-6 -139 17 -166 43 -50 142 -44 167 10 6 14 13 68 16 122 4 53 8 115 9 138 8
89 -44 140 -130 126z m53 -74 c9 -12 9 -50 -1 -193 -2 -33 -5 -67 -5 -76 -1
-20 -25 -31 -47 -22 -15 5 -16 22 -10 139 3 73 9 140 12 148 7 19 38 21 51 4z"/>
<path d="M2761 421 c-10 -7 -8 -146 4 -266 2 -16 4 -58 4 -92 l1 -61 33 1 32
2 -1 85 c0 85 0 86 25 88 45 3 79 23 88 50 21 62 0 172 -35 188 -23 10 -137
13 -151 5z m117 -66 c8 -7 11 -85 5 -102 -3 -7 -16 -13 -29 -13 -18 0 -24 6
-25 23 0 12 -2 36 -5 52 -2 17 -2 35 1 42 4 11 41 10 53 -2z"/>
</g>
</svg>
